<svg width="32" height="32" viewBox="0 0 254 254" fill="none" xmlns="http://www.w3.org/2000/svg">
<rect width="254" height="254" fill="white"/>
<g clip-path="url(#clip0)">
<path d="M156.184 88.5068L163.039 88.6238L181.664 69.9991L182.566 62.1079C167.794 48.9469 148.29 40.9319 126.977 40.9319C88.3897 40.9319 55.8216 67.187 46.1816 102.751C48.2146 101.333 52.5615 102.397 52.5615 102.397L89.7774 96.2776C89.7774 96.2776 91.69 93.1111 92.6597 93.2683C97.0114 88.4873 102.314 84.6682 108.227 82.0558C114.141 79.4433 120.535 78.0952 127 78.0977C138.034 78.1211 148.199 82.0199 156.184 88.47V88.5068Z" fill="#EA4335"/>
<path d="M207.818 102.825C203.495 86.8751 194.584 72.7912 182.556 62.1079L156.184 88.4801C166.75 97.0066 173.528 110.054 173.528 124.659V129.314C186.358 129.314 196.781 139.76 196.781 152.566C196.781 165.396 186.335 175.819 173.528 175.819H127.023L122.369 180.5V208.407L127.023 213.038H173.528C189.559 213.016 204.927 206.638 216.263 195.303C227.598 183.968 233.977 168.6 234 152.57C233.977 131.989 223.634 113.782 207.818 102.828V102.825Z" fill="#4285F4"/>
<path d="M80.4718 213.068H126.95V175.819H80.4718C77.1697 175.819 73.906 175.11 70.902 173.739L64.1911 175.795L45.5664 194.42L43.9346 200.706C54.4303 208.713 67.2673 213.048 80.4684 213.041L80.4718 213.068Z" fill="#34A853"/>
<path d="M80.4717 92.1247C64.441 92.1468 49.0731 98.5246 37.7374 109.86C26.4016 121.195 20.023 136.562 20 152.593C20 172.231 29.406 189.692 43.9613 200.753L70.9253 173.789C66.844 171.949 63.3801 168.97 60.9491 165.211C58.518 161.451 57.223 157.07 57.2193 152.593C57.2193 139.763 67.6652 129.341 80.4717 129.341C89.9011 129.341 98.0063 135.025 101.671 143.05L128.635 116.086C117.577 101.531 100.113 92.1247 80.4751 92.1247H80.4717Z" fill="#FBBC05"/>
</g>
<defs>
<clipPath id="clip0">
<rect width="214" height="214" fill="white" transform="translate(20 20)"/>
</clipPath>
</defs>
</svg>
