<svg width="current" height="current" viewBox="0 0 72 72" fill="none" xmlns="http://www.w3.org/2000/svg">
<path d="M0 0V72H72V0H0Z" fill="#0068B5"/>
<path d="M15.19 24.72H11.4V28.51H15.19V24.72Z" fill="#00C7FD"/>
<path d="M15.1 44.45V30.81H11.5V44.45H15.1ZM38.91 44.59V41.25C38.38 41.25 37.94 41.22 37.61 41.17C37.24 41.11 36.96 40.99 36.77 40.8C36.58 40.61 36.45 40.34 36.4 39.98C36.34 39.64 36.32 39.2 36.32 38.66V33.89H38.92V30.82H36.32V25.5H32.73V38.68C32.73 39.79 32.83 40.74 33.02 41.49C33.21 42.24 33.53 42.84 33.98 43.3C34.43 43.76 35.02 44.09 35.73 44.28C36.45 44.48 37.38 44.58 38.47 44.58H38.91V44.59ZM59.5 44.45V24.45H55.91V44.45H59.5ZM29.25 32.15C28.25 31.08 26.85 30.53 25.07 30.53C24.21 30.53 23.42 30.71 22.71 31.05C22 31.4 21.4 31.89 20.92 32.51L20.72 32.76V32.53V30.8H17.18V44.44H20.75V37.17V37.67C20.75 37.59 20.75 37.5 20.75 37.42C20.79 36.15 21.11 35.19 21.7 34.59C22.33 33.95 23.1 33.62 23.98 33.62C25.02 33.62 25.81 33.94 26.33 34.56C26.84 35.17 27.11 36.05 27.11 37.17V37.2C27.11 37.2 27.11 37.2 27.11 37.21V44.42H30.74V36.68C30.76 34.76 30.25 33.23 29.25 32.15ZM54.04 37.6C54.04 36.62 53.87 35.69 53.52 34.84C53.18 33.99 52.69 33.23 52.07 32.59C51.46 31.95 50.71 31.44 49.85 31.08C48.99 30.72 48.03 30.53 47 30.53C46.02 30.53 45.09 30.72 44.23 31.09C43.37 31.46 42.61 31.97 41.98 32.61C41.35 33.24 40.84 34 40.46 34.86C40.09 35.72 39.9 36.65 39.9 37.63C39.9 38.61 40.08 39.54 40.43 40.4C40.78 41.26 41.28 42.02 41.9 42.65C42.52 43.28 43.29 43.79 44.18 44.16C45.07 44.53 46.05 44.72 47.1 44.72C50.14 44.72 52.04 43.34 53.17 42.04L50.58 40.07C50.03 40.72 48.74 41.59 47.13 41.59C46.12 41.59 45.28 41.36 44.65 40.89C44.02 40.43 43.58 39.79 43.35 39L43.31 38.87H54.03V37.6H54.04ZM43.35 36.35C43.35 35.35 44.5 33.61 46.97 33.61C49.44 33.61 50.59 35.35 50.59 36.35H43.35Z" fill="white"/>
<path d="M63.6 42.73C63.53 42.57 63.43 42.43 63.31 42.31C63.19 42.19 63.05 42.09 62.89 42.02C62.73 41.95 62.56 41.91 62.37 41.91C62.19 41.91 62.01 41.95 61.85 42.02C61.69 42.09 61.55 42.19 61.43 42.31C61.31 42.43 61.21 42.57 61.14 42.73C61.07 42.89 61.03 43.06 61.03 43.25C61.03 43.43 61.07 43.61 61.14 43.77C61.21 43.93 61.31 44.07 61.43 44.19C61.55 44.31 61.69 44.41 61.85 44.48C62.01 44.55 62.18 44.59 62.37 44.59C62.55 44.59 62.73 44.55 62.89 44.48C63.05 44.41 63.19 44.31 63.31 44.19C63.43 44.07 63.53 43.93 63.6 43.77C63.67 43.61 63.71 43.44 63.71 43.25C63.7 43.06 63.67 42.89 63.6 42.73ZM63.38 43.67C63.32 43.8 63.24 43.92 63.15 44.02C63.05 44.12 62.93 44.2 62.8 44.25C62.67 44.31 62.52 44.34 62.37 44.34C62.22 44.34 62.08 44.31 61.94 44.25C61.81 44.19 61.69 44.11 61.59 44.02C61.49 43.92 61.41 43.8 61.36 43.67C61.3 43.54 61.27 43.39 61.27 43.24C61.27 43.09 61.3 42.95 61.36 42.81C61.42 42.68 61.5 42.56 61.59 42.46C61.69 42.36 61.81 42.28 61.94 42.23C62.07 42.17 62.22 42.14 62.37 42.14C62.52 42.14 62.66 42.17 62.8 42.23C62.93 42.29 63.05 42.37 63.15 42.46C63.25 42.55 63.33 42.68 63.38 42.81C63.44 42.94 63.47 43.09 63.47 43.24C63.47 43.39 63.44 43.54 63.38 43.67ZM62.62 43.36C62.72 43.35 62.81 43.31 62.88 43.24C62.95 43.17 62.98 43.07 62.98 42.94C62.98 42.79 62.94 42.68 62.85 42.6C62.76 42.52 62.63 42.48 62.44 42.48H61.85V44H62.13V43.38H62.33L62.72 44H63.01L62.62 43.36ZM62.47 43.14C62.43 43.14 62.38 43.15 62.34 43.15H62.14V42.72H62.34C62.38 42.72 62.43 42.72 62.47 42.72C62.51 42.72 62.55 42.73 62.59 42.75C62.62 42.76 62.65 42.79 62.67 42.81C62.69 42.84 62.7 42.88 62.7 42.93C62.7 42.98 62.69 43.02 62.67 43.05C62.65 43.08 62.62 43.1 62.59 43.11C62.55 43.12 62.51 43.13 62.47 43.14Z" fill="white"/>
</svg>
